M48
; DRILL file {KiCad (5.1.5)-3} date 2020/05/05 21:42:14
; FORMAT={-:-/ absolute / metric / decimal}
; #@! TF.CreationDate,2020-05-05T21:42:14+09:00
; #@! TF.GenerationSoftware,Kicad,Pcbnew,(5.1.5)-3
FMAT,2
METRIC
T1C0.400
T2C0.600
T3C0.700
T4C0.800
T5C0.900
T6C1.000
T7C1.200
T8C1.500
T9C1.600
T10C2.300
T11C3.300
T12C3.500
%
G90
G05
T1
X124.7Y-103.2
X127.0Y-112.0
X127.0Y-113.0
X128.3Y-86.7
X128.3Y-107.0
X128.5Y-94.0
X129.2Y-85.3
X129.5Y-117.4
X130.378Y-87.551
X132.162Y-86.081
X134.5Y-56.0
X137.0Y-115.5
X137.311Y-93.138
X145.369Y-83.87
X148.5Y-84.5
X155.2Y-101.7
X174.8Y-109.2
X179.0Y-89.5
X181.2Y-73.0
X183.551Y-68.626
X191.0Y-104.5
X191.0Y-107.0
T2
X135.0Y-99.0
X135.0Y-101.0
T3
X108.0Y-76.2
X108.0Y-77.8
X109.2Y-75.4
X109.2Y-77.0
X109.2Y-78.6
T4
X131.0Y-120.0
X141.0Y-120.0
X118.0Y-123.0
X128.0Y-123.0
X135.0Y-65.0
X135.0Y-75.0
X188.0Y-114.0
X188.0Y-119.0
X160.0Y-101.5
X170.0Y-101.5
X136.0Y-103.0
X141.0Y-103.0
X110.0Y-116.0
X115.0Y-116.0
X137.52Y-80.0
X147.52Y-80.0
X181.0Y-76.5
X186.0Y-76.5
X148.5Y-139.0
X148.5Y-144.0
X128.0Y-97.0
X133.0Y-97.0
X131.0Y-123.0
X141.0Y-123.0
X179.0Y-108.0
X189.0Y-108.0
X179.0Y-105.0
X189.0Y-105.0
X115.79Y-126.22
X115.79Y-128.76
X115.79Y-131.3
X115.79Y-133.84
X115.79Y-136.38
X115.79Y-138.92
X115.79Y-141.46
X115.79Y-144.0
X117.06Y-126.22
X117.06Y-128.76
X117.06Y-131.3
X117.06Y-133.84
X117.06Y-136.38
X117.06Y-138.92
X117.06Y-141.46
X117.06Y-144.0
X145.0Y-126.22
X145.0Y-128.76
X145.0Y-131.3
X145.0Y-133.84
X145.0Y-136.38
X145.0Y-138.92
X145.0Y-141.46
X145.0Y-144.0
X120.0Y-97.0
X125.0Y-97.0
X178.4Y-133.6
X183.4Y-133.6
X179.0Y-111.0
X189.0Y-111.0
X164.0Y-80.0
X174.0Y-80.0
X157.0Y-66.0
X157.0Y-76.0
X136.0Y-105.5
X141.0Y-105.5
X117.0Y-97.0
X117.0Y-102.0
X160.0Y-115.5
X170.0Y-115.5
X160.0Y-111.0
X170.0Y-111.0
X153.0Y-66.0
X153.0Y-76.0
X132.5Y-65.0
X132.5Y-70.0
X136.0Y-97.0
X141.0Y-97.0
X191.5Y-61.0
X191.5Y-66.0
X118.0Y-120.0
X128.0Y-120.0
X158.0Y-62.5
X168.0Y-62.5
X142.5Y-62.5
X152.5Y-62.5
X112.0Y-62.0
X117.0Y-62.0
X160.0Y-106.5
X170.0Y-106.5
X129.2Y-114.0
X134.2Y-114.0
X127.0Y-85.0
X127.0Y-90.0
T5
X143.0Y-70.0
X145.0Y-68.2
X147.0Y-70.0
X150.0Y-103.75
X150.0Y-106.25
X150.0Y-96.25
X150.0Y-98.75
X195.0Y-109.62
X150.0Y-111.25
X150.0Y-113.75
X150.0Y-118.75
X150.0Y-121.25
X163.0Y-70.0
X165.0Y-68.2
X167.0Y-70.0
T6
X115.0Y-54.0
X117.54Y-54.0
X120.08Y-54.0
X122.62Y-54.0
X125.16Y-54.0
X127.7Y-54.0
X130.24Y-54.0
X132.78Y-54.0
X195.0Y-102.0
X195.0Y-104.54
X195.0Y-107.08
X195.0Y-112.16
X195.0Y-114.7
X195.0Y-117.24
X195.0Y-119.78
X195.0Y-122.32
X195.0Y-124.86
X113.0Y-99.0
X113.0Y-101.5
X113.0Y-103.5
X113.0Y-106.0
X192.5Y-70.0
X192.5Y-72.5
X192.5Y-75.0
X192.5Y-77.5
X192.5Y-80.0
X192.5Y-82.5
X165.62Y-141.3
X168.16Y-141.3
X170.7Y-141.3
X173.24Y-141.3
X175.78Y-141.3
X178.32Y-141.3
X180.86Y-141.3
X183.4Y-141.3
X104.0Y-125.0
X104.0Y-127.54
X104.0Y-130.08
X104.0Y-132.62
X104.0Y-135.16
X104.0Y-137.7
X115.0Y-68.0
X115.0Y-70.5
X115.0Y-73.0
X104.0Y-62.0
X104.0Y-64.54
T7
X137.5Y-82.75
X137.5Y-87.25
X144.0Y-82.75
X144.0Y-87.25
X121.75Y-73.75
X121.75Y-78.25
X128.25Y-73.75
X128.25Y-78.25
X121.75Y-63.75
X121.75Y-68.25
X128.25Y-63.75
X128.25Y-68.25
T8
X103.6Y-72.9
X103.6Y-81.1
X108.3Y-72.9
X108.3Y-81.1
T9
X159.0Y-56.0
X147.0Y-56.0
T10
X110.3Y-96.0
X110.3Y-109.0
T11
X195.0Y-145.0
X105.0Y-55.0
X195.0Y-55.0
X105.0Y-145.0
T12
X160.0Y-89.0
X160.0Y-141.0
X189.0Y-89.0
X189.0Y-141.0
X130.0Y-137.5
T0
M30
